# xmcd
#
# Track frame offsets:
#	150
#	13760
#	25955
#	37427
#	48697
#	60772
#	73910
#	88600
#	100837
#	113457
#	130460
#	141927
#	154612
#	166885
#	181525
#	196157
#	206725
#	218945
#
# Disc length: 3079 seconds
#
# Revision: 1
# Processed by: cddbd v1.5.2PL0 Copyright (c) Steve Scherf et al.
# Submitted via: audiograbber 1.83.01
#
DISCID=fe0c0512
DTITLE=John Glenn - At Home In Ireland
DYEAR=1999
DGENRE=
TTITLE0=No Man's Land
TTITLE1=Pet Calf
TTITLE2=Hometown On The Foyle
TTITLE3=Faughan Side
TTITLE4=Golden Dreams
TTITLE5=Four Country Roads
TTITLE6=Noreen Bawn
TTITLE7=The Boys From The County Armagh
TTITLE8=Beautiful Irish Eyes
TTITLE9=If We Only Had Old Ireland Over Here
TTITLE10=Pretty Little Girl From Omagh
TTITLE11=Hills Of Kerry
TTITLE12=Moonlight In Mayo
TTITLE13=Farewell To Galway
TTITLE14=The Grass Is Greener
TTITLE15=Our House Is A Home
TTITLE16=A Tribute To Brian Coll
TTITLE17=Camden Town
EXTD=
EXTT0=
EXTT1=
EXTT2=
EXTT3=
EXTT4=
EXTT5=
EXTT6=
EXTT7=
EXTT8=
EXTT9=
EXTT10=
EXTT11=
EXTT12=
EXTT13=
EXTT14=
EXTT15=
EXTT16=
EXTT17=
PLAYORDER=
